<svg width="739" height="190" viewBox="0 0 739 190" fill="white" xmlns="http://www.w3.org/2000/svg">
<path d="M105.926 182.8C100.059 182.8 95.9258 180.467 93.5258 175.8C91.1258 171.267 89.9258 165.933 89.9258 159.8C89.9258 154.333 90.6591 148.933 92.1258 143.6C93.7258 138.267 95.5925 134.2 97.7258 131.4C94.1258 135.667 89.6591 140.533 84.3258 146C78.9925 151.467 73.1258 156.733 66.7258 161.8C60.3258 166.867 53.7258 171.067 46.9258 174.4C40.1258 177.733 33.3925 179.4 26.7258 179.4C17.9258 179.4 11.3258 176.6 6.92578 171C2.65911 165.4 0.525781 157.733 0.525781 148C0.525781 140.4 1.79245 132.267 4.32578 123.6C6.99245 114.8 10.8591 105.867 15.9258 96.8C18.3258 92.4 20.9924 88.0667 23.9258 83.8C26.9924 79.4 30.2591 75.2667 33.7258 71.4C29.5925 69.4 25.5924 67.2 21.7258 64.8C17.8591 62.2667 14.7258 59.2667 12.3258 55.8C9.92578 52.3333 8.72578 48.2 8.72578 43.4C8.72578 40.8667 9.25912 38.6 10.3258 36.6C11.5258 34.4667 12.7924 33.4 14.1258 33.4C15.3258 33.4 15.9258 34.1333 15.9258 35.6C15.9258 36.5333 15.6591 37.5333 15.1258 38.6C14.4591 40.3333 14.1258 41.9333 14.1258 43.4C14.1258 47 15.3924 50.4 17.9258 53.6C20.4591 56.6667 23.5258 59.3333 27.1258 61.6C30.7258 63.8667 34.0591 65.6667 37.1258 67C45.6591 57.6667 54.9925 49.0667 65.1258 41.2C75.3925 33.2 86.3925 26.8 98.1258 22C109.859 17.2 122.192 14.8 135.126 14.8C145.926 14.8 154.392 17.2 160.526 22C166.659 26.6667 169.726 32.7333 169.726 40.2C169.726 46.8667 167.792 52.6 163.926 57.4C160.192 62.0667 155.259 66 149.126 69.2C142.992 72.2667 136.326 74.7333 129.126 76.6C122.059 78.3333 115.059 79.6 108.126 80.4C101.192 81.0667 95.1258 81.4 89.9258 81.4C82.3258 81.4 74.9258 80.9333 67.7258 80C60.6591 79.0667 53.5925 77.6 46.5258 75.6C43.0591 80.5333 39.2591 86.2667 35.1258 92.8C31.1258 99.2 27.2591 106 23.5258 113.2C19.9258 120.267 16.9258 127.333 14.5258 134.4C12.2591 141.333 11.1258 147.8 11.1258 153.8C11.1258 160.333 12.6591 165.267 15.7258 168.6C18.7924 171.8 22.9258 173.4 28.1258 173.4C34.3924 173.4 40.9925 171.533 47.9258 167.8C54.9925 163.933 62.0591 158.933 69.1258 152.8C76.1925 146.667 82.9258 140 89.3258 132.8C95.7258 125.6 101.459 118.467 106.526 111.4C111.592 104.333 115.592 98.0667 118.526 92.6C120.792 88.3333 122.992 85.3333 125.126 83.6C127.259 81.7333 129.059 80.8 130.526 80.8C131.992 80.8 133.126 81.4 133.926 82.6C134.726 83.6667 135.126 85.1333 135.126 87C135.126 90.7333 133.459 94.4667 130.126 98.2C125.592 103.4 121.192 109.733 116.926 117.2C112.659 124.533 109.192 132.267 106.526 140.4C103.859 148.4 102.526 155.933 102.526 163C102.526 167.933 103.259 171.467 104.726 173.6C106.326 175.733 108.392 176.8 110.926 176.8C114.792 176.8 118.659 175.467 122.526 172.8C126.526 170.267 130.326 166.8 133.926 162.4C137.526 158 140.859 153.133 143.926 147.8C146.992 142.333 149.659 136.867 151.926 131.4C152.592 131.4 153.126 131.467 153.526 131.6C154.059 131.733 154.326 132.267 154.326 133.2C152.059 138.933 149.326 144.733 146.126 150.6C143.059 156.467 139.526 161.867 135.526 166.8C131.526 171.6 127.059 175.467 122.126 178.4C117.192 181.333 111.792 182.8 105.926 182.8ZM88.1258 76.6C93.4591 76.6 99.3925 76.3333 105.926 75.8C112.459 75.1333 118.926 74 125.326 72.4C131.859 70.8 137.859 68.5333 143.326 65.6C148.792 62.6667 153.192 58.9333 156.526 54.4C159.859 49.8667 161.526 44.3333 161.526 37.8C161.526 31.9333 159.059 27.4667 154.126 24.4C149.326 21.3333 143.192 19.8 135.726 19.8C123.326 19.8 111.992 22.2667 101.726 27.2C91.5925 32 82.2591 38.3333 73.7258 46.2C65.3258 54.0667 57.3258 62.5333 49.7258 71.6C55.5925 73.3333 61.5925 74.6 67.7258 75.4C73.9925 76.2 80.7925 76.6 88.1258 76.6ZM156.09 170.8C150.623 170.8 146.157 169.133 142.69 165.8C139.357 162.333 137.69 158.733 137.69 155C137.69 151.933 138.49 149.133 140.09 146.6C141.557 143.933 143.557 142.6 146.09 142.6L146.29 142.2C149.223 136.867 152.023 131.467 154.69 126C157.49 120.4 160.557 114.467 163.89 108.2C166.69 103 169.69 98.7333 172.89 95.4C176.223 92.0667 180.09 90.4 184.49 90.4C185.557 90.4 187.023 90.6667 188.89 91.2C190.757 91.6 191.69 92.5333 191.69 94C191.69 95.0667 191.09 95.6 189.89 95.6C188.957 95.6 187.89 95.3333 186.69 94.8C185.623 94.2667 184.757 94 184.09 94C181.557 94 179.423 95.4667 177.69 98.4C175.957 101.333 175.09 104.467 175.09 107.8C175.09 111.4 175.69 114.667 176.89 117.6C178.09 120.4 179.49 123.133 181.09 125.8C182.69 128.467 184.09 131.2 185.29 134C186.49 136.667 187.09 139.6 187.09 142.8C187.09 149.2 185.823 154.4 183.29 158.4C180.89 162.267 177.69 165.2 173.69 167.2H173.89C180.957 167.2 186.757 163.933 191.29 157.4C195.957 150.733 200.557 142.067 205.09 131.4C206.69 131.4 207.49 132 207.49 133.2C204.957 139.2 202.157 145.067 199.09 150.8C196.023 156.533 192.423 161.267 188.29 165C184.157 168.733 179.09 170.6 173.09 170.6C170.557 170.6 168.223 170.333 166.09 169.8C163.023 170.467 159.69 170.8 156.09 170.8ZM153.09 149.6C153.09 152.8 153.823 155.867 155.29 158.8C156.757 161.733 159.423 163.933 163.29 165.4C166.757 163.4 169.423 160.333 171.29 156.2C173.29 151.933 174.29 147.533 174.29 143C174.29 139.267 173.89 135.467 173.09 131.6C172.29 127.733 171.423 123.933 170.49 120.2C169.69 116.467 169.29 113.133 169.29 110.2C169.29 109.267 169.29 108.467 169.29 107.8C169.423 107 169.557 106.267 169.69 105.6C167.29 109.2 164.823 113.4 162.29 118.2C159.89 123 157.557 127.6 155.29 132C153.023 136.4 150.957 140 149.09 142.8C151.757 143.2 153.09 145.467 153.09 149.6ZM146.49 159.6C146.49 161.733 147.223 163.6 148.69 165.2C150.157 166.8 152.357 167.6 155.29 167.6C156.623 167.6 157.89 167.467 159.09 167.2C156.29 165.467 154.023 163.267 152.29 160.6C150.69 157.933 149.89 154.867 149.89 151.4C148.69 152.733 147.823 154.133 147.29 155.6C146.757 156.933 146.49 158.267 146.49 159.6ZM185.81 171C190.743 161.533 195.41 152.067 199.81 142.6C204.21 133 208.677 123.933 213.21 115.4C215.877 110.6 218.077 107.267 219.81 105.4C221.677 103.4 224.143 102.4 227.21 102.4C228.277 102.4 229.41 102.6 230.61 103C231.81 103.267 233.01 103.4 234.21 103.4C235.01 103.4 235.61 103.333 236.01 103.2C234.143 104.267 231.743 106.933 228.81 111.2C225.877 115.333 222.877 120.133 219.81 125.6C216.743 131.067 214.01 136.2 211.61 141C214.143 137.933 216.743 134.867 219.41 131.8C222.21 128.733 225.277 125.8 228.61 123C231.543 120.467 234.61 117.733 237.81 114.8C241.143 111.733 244.41 109.133 247.61 107C250.81 104.867 253.61 103.8 256.01 103.8C256.943 103.8 257.543 103.867 257.81 104C260.343 105.067 261.61 106.8 261.61 109.2C261.61 110 261.277 111.2 260.61 112.8C258.877 117.333 256.61 122 253.81 126.8C251.143 131.467 248.61 136.2 246.21 141C248.21 138.6 250.677 135.667 253.61 132.2C256.677 128.733 259.743 125.667 262.81 123C265.743 120.333 269.477 117.533 274.01 114.6C278.543 111.667 283.01 109.133 287.41 107C291.81 104.867 295.343 103.8 298.01 103.8C298.943 103.8 299.61 103.867 300.01 104C300.01 104 299.277 105.333 297.81 108C296.343 110.533 294.477 113.933 292.21 118.2C290.077 122.333 287.877 126.8 285.61 131.6C283.343 136.267 281.277 140.8 279.41 145.2C277.677 149.467 276.543 153.067 276.01 156C275.61 157.733 275.41 159.333 275.41 160.8C275.41 162.933 275.81 164.333 276.61 165C277.41 165.667 278.277 166 279.21 166C281.877 166 284.477 164.867 287.01 162.6C289.677 160.333 292.277 157.467 294.81 154C297.343 150.4 299.61 146.6 301.61 142.6C303.743 138.6 305.543 134.867 307.01 131.4C308.61 131.4 309.41 132 309.41 133.2C307.943 136.8 306.077 140.8 303.81 145.2C301.677 149.467 299.21 153.533 296.41 157.4C293.61 161.267 290.543 164.467 287.21 167C283.877 169.533 280.277 170.8 276.41 170.8C273.61 170.8 270.943 169.867 268.41 168C266.01 166.133 264.81 162.667 264.81 157.6C264.81 152.133 266.077 146.667 268.61 141.2C271.277 135.733 274.01 130.733 276.81 126.2C278.143 123.933 278.81 122.133 278.81 120.8C278.81 119.2 278.01 118.4 276.41 118.4C275.077 118.4 273.21 119.067 270.81 120.4C268.543 121.733 265.677 124.067 262.21 127.4C260.077 129.4 257.543 132.2 254.61 135.8C251.81 139.267 248.943 143.067 246.01 147.2C243.077 151.333 240.543 155.4 238.41 159.4C236.277 163.4 234.877 166.933 234.21 170C232.21 170 230.61 169.2 229.41 167.6C228.21 165.867 227.61 163.867 227.61 161.6C227.61 161.2 227.61 160.8 227.61 160.4C227.61 160 227.677 159.533 227.81 159C228.477 154.867 229.543 151.4 231.01 148.6C232.477 145.667 234.143 142.267 236.01 138.4C236.943 136.667 238.01 134.667 239.21 132.4C240.41 130 241.477 127.733 242.41 125.6C243.343 123.333 243.81 121.467 243.81 120C243.81 118.667 243.277 118 242.21 118C241.01 118 239.41 118.6 237.41 119.8C235.543 121 233.743 122.4 232.01 124C230.277 125.467 228.943 126.6 228.01 127.4C224.677 130.6 220.61 135.2 215.81 141.2C211.143 147.2 206.01 155.733 200.41 166.8C199.61 168.267 198.677 169.2 197.61 169.6C196.543 169.867 194.877 170 192.61 170C191.143 170 189.943 170 189.01 170C187.943 170.133 186.877 170.467 185.81 171ZM312.568 170C307.635 170 304.168 168.6 302.168 165.8C300.168 162.867 299.168 159.533 299.168 155.8C299.168 153.8 299.368 151.8 299.768 149.8C300.301 147.667 300.901 145.733 301.568 144L314.968 109.8C315.368 108.733 315.568 107.8 315.568 107C315.568 105.667 315.235 104.533 314.568 103.6C313.901 102.533 313.435 101.8 313.168 101.4L324.168 101C326.168 100.867 327.568 101.133 328.368 101.8C329.301 102.333 329.768 103 329.768 103.8C329.768 104.6 329.301 106.067 328.368 108.2C327.035 111.4 325.235 115.4 322.968 120.2C320.701 125 318.435 129.933 316.168 135C314.035 140.067 312.168 144.8 310.568 149.2C309.101 153.6 308.368 157 308.368 159.4C308.368 161.133 308.768 162.6 309.568 163.8C310.501 165 312.035 165.6 314.168 165.6C316.968 165.6 319.701 164.533 322.368 162.4C325.168 160.133 327.768 157.267 330.168 153.8C332.568 150.333 334.768 146.6 336.768 142.6C338.901 138.6 340.701 134.867 342.168 131.4C343.768 131.4 344.568 132 344.568 133.2C343.235 136.533 341.501 140.333 339.368 144.6C337.235 148.867 334.768 152.933 331.968 156.8C329.301 160.533 326.301 163.667 322.968 166.2C319.768 168.733 316.301 170 312.568 170ZM330.368 88.6C328.635 88.6 327.101 87.9333 325.768 86.6C324.568 85.2667 323.968 83.6667 323.968 81.8C323.968 79.5333 324.901 77.5333 326.768 75.8C328.635 73.9333 330.701 73 332.968 73C334.835 73 336.435 73.6 337.768 74.8C339.101 76 339.768 77.5333 339.768 79.4C339.768 81.8 338.835 83.9333 336.968 85.8C335.101 87.6667 332.901 88.6 330.368 88.6ZM513.904 38.2C513.904 43.2667 512.904 49.5333 510.904 57C509.037 64.3333 506.504 72.4 503.304 81.2C500.237 89.8667 496.971 98.7333 493.504 107.8C490.037 116.867 486.704 125.667 483.504 134.2C480.437 142.6 477.904 150.267 475.904 157.2C474.037 164 473.104 169.467 473.104 173.6C473.104 179.867 475.171 183 479.304 183C483.304 183 488.171 181.133 493.904 177.4C499.637 173.8 505.704 168.933 512.104 162.8C518.637 156.533 525.037 149.467 531.304 141.6C537.571 133.6 543.237 125.333 548.304 116.8C553.504 108.267 557.637 99.8667 560.704 91.6C563.771 83.2 565.304 75.5333 565.304 68.6C565.304 63.9333 564.637 59.7333 563.304 56C562.104 52.2667 559.504 50.4 555.504 50.4C553.771 50.4 552.371 50.0667 551.304 49.4C550.371 48.6 549.904 47.8667 549.904 47.2C549.904 45.8667 551.037 45.2 553.304 45.2C554.904 45.2 556.904 45.8 559.304 47C561.837 48.0667 564.304 49.8 566.704 52.2C569.237 54.4667 571.371 57.4 573.104 61C574.837 64.6 575.704 68.8667 575.704 73.8C575.704 79.9333 574.037 87.0667 570.704 95.2C567.504 103.2 563.104 111.533 557.504 120.2C552.037 128.733 545.771 137.133 538.704 145.4C531.771 153.533 524.504 160.933 516.904 167.6C509.304 174.133 501.837 179.333 494.504 183.2C487.304 187.2 480.637 189.2 474.504 189.2C469.304 189.2 465.837 187.6 464.104 184.4C462.371 181.2 461.504 177 461.504 171.8C461.504 163.667 462.837 154.8 465.504 145.2C468.304 135.6 471.704 125.667 475.704 115.4C479.837 105 483.904 94.6667 487.904 84.4C492.037 74.1333 495.437 64.2667 498.104 54.8C500.904 45.3333 502.304 36.6 502.304 28.6C502.304 19.5333 499.704 13.4 494.504 10.2C489.437 7 482.771 5.4 474.504 5.4C466.371 5.4 457.704 6.93333 448.504 10C439.437 13.0667 430.504 17.4 421.704 23C413.037 28.6 405.171 35.3333 398.104 43.2C391.037 50.9333 385.371 59.6 381.104 69.2C376.971 78.6667 374.904 88.8667 374.904 99.8C374.904 106.2 375.971 112.2 378.104 117.8C380.371 123.267 383.971 127.733 388.904 131.2C393.837 134.533 400.304 136.2 408.304 136.2C414.304 136.2 420.037 134.933 425.504 132.4C431.104 129.867 436.037 126.467 440.304 122.2C444.571 117.8 447.971 112.933 450.504 107.6C453.037 102.267 454.304 96.8 454.304 91.2C454.304 86.6667 453.371 82.7333 451.504 79.4C449.637 75.9333 446.504 74.2 442.104 74.2C440.371 74.2 438.571 74.4667 436.704 75C434.837 75.5333 433.571 75.8 432.904 75.8C432.237 75.8 431.904 75.4 431.904 74.6C431.904 74.3333 432.037 74 432.304 73.6C432.571 73.2 433.037 72.8 433.704 72.4C435.171 71.6 436.971 71 439.104 70.6C441.237 70.0667 443.104 69.8 444.704 69.8C450.571 69.8 455.104 71.8667 458.304 76C461.504 80.1333 463.104 85.1333 463.104 91C463.104 97.4 461.437 103.6 458.104 109.6C454.771 115.6 450.304 121 444.704 125.8C439.237 130.6 433.037 134.4 426.104 137.2C419.304 140 412.304 141.4 405.104 141.4C396.171 141.4 388.571 139.2 382.304 134.8C376.171 130.4 371.504 124.667 368.304 117.6C365.237 110.4 363.704 102.733 363.704 94.6C363.704 84.0667 365.771 74.0667 369.904 64.6C374.171 55 379.971 46.3333 387.304 38.6C394.637 30.7333 402.971 23.9333 412.304 18.2C421.637 12.4667 431.437 8.06666 441.704 4.99999C452.104 1.79999 462.437 0.199993 472.704 0.199993C480.437 0.199993 487.371 1.46666 493.504 3.99999C499.771 6.53332 504.704 10.6 508.304 16.2C512.037 21.6667 513.904 29 513.904 38.2ZM614.04 170.6C610.973 170.6 608.24 169.733 605.84 168C603.573 166.267 602.44 162.733 602.44 157.4C602.44 155.133 602.573 153 602.84 151C603.24 149 603.707 146.867 604.24 144.6C603.04 146.6 601.373 149.067 599.24 152C597.107 154.933 594.707 157.8 592.04 160.6C589.507 163.4 586.84 165.733 584.04 167.6C581.373 169.467 578.84 170.4 576.44 170.4C572.973 170.4 570.173 168.867 568.04 165.8C565.907 162.6 564.84 158.467 564.84 153.4C564.84 147.933 566.107 142.067 568.64 135.8C571.173 129.533 574.64 123.533 579.04 117.8C583.44 112.067 588.507 107.4 594.24 103.8C599.973 100.2 605.973 98.4 612.24 98.4C615.307 98.4 618.24 98.9333 621.04 100C623.84 100.933 626.307 102.533 628.44 104.8C629.373 105.733 629.84 106.8 629.84 108C629.84 108.8 629.507 109.467 628.84 110C628.173 110.533 627.307 110.667 626.24 110.4C624.773 105.733 621.64 103.4 616.84 103.4C614.573 103.4 611.973 104.133 609.04 105.6C605.44 107.467 601.573 110.467 597.44 114.6C593.44 118.6 589.64 123.2 586.04 128.4C582.573 133.467 579.707 138.6 577.44 143.8C575.173 149 574.04 153.733 574.04 158C574.04 162.4 575.707 164.6 579.04 164.6C581.973 164.6 584.973 163.2 588.04 160.4C591.24 157.6 594.24 154.133 597.04 150C599.973 145.733 602.64 141.533 605.04 137.4C607.44 133.267 609.307 129.933 610.64 127.4C612.64 123.8 614.507 120.8 616.24 118.4C617.973 116 620.44 114.8 623.64 114.8C625.107 114.8 626.573 115 628.04 115.4C629.507 115.8 631.04 115.867 632.64 115.6C628.64 119.6 625.107 124.333 622.04 129.8C619.107 135.267 616.84 140.667 615.24 146C613.64 151.2 612.84 155.6 612.84 159.2C612.84 163.2 614.173 165.2 616.84 165.2C618.973 165.2 621.24 164 623.64 161.6C626.173 159.2 628.573 156.2 630.84 152.6C633.24 148.867 635.44 145.133 637.44 141.4C639.44 137.533 641.04 134.2 642.24 131.4C642.907 131.4 643.44 131.467 643.84 131.6C644.373 131.733 644.64 132.267 644.64 133.2C644.507 133.733 644.24 134.333 643.84 135C643.573 135.533 643.107 136.533 642.44 138C641.373 140.133 639.907 143 638.04 146.6C636.173 150.2 633.973 153.867 631.44 157.6C628.907 161.2 626.173 164.267 623.24 166.8C620.307 169.333 617.24 170.6 614.04 170.6ZM683.72 64.4C681.986 66.9333 680.053 70.1333 677.92 74C675.786 77.8667 673.786 81.6 671.92 85.2C670.186 88.8 668.853 91.5333 667.92 93.4H686.32C686.32 93.9333 686.053 94.8 685.52 96C685.12 97.2 684.253 98.0667 682.92 98.6H665.52C663.92 102.2 662.053 106.533 659.92 111.6C657.92 116.667 655.92 121.933 653.92 127.4C652.053 132.867 650.453 138 649.12 142.8C647.92 147.467 647.32 151.267 647.32 154.2C647.32 158.2 647.853 161.2 648.92 163.2C649.986 165.067 651.92 166 654.72 166C658.32 166 661.786 164.267 665.12 160.8C668.453 157.2 671.586 152.733 674.52 147.4C677.586 142.067 680.253 136.733 682.52 131.4C684.12 131.4 684.92 132 684.92 133.2C683.453 136.8 681.653 140.733 679.52 145C677.386 149.267 674.92 153.4 672.12 157.4C669.453 161.267 666.386 164.467 662.92 167C659.586 169.4 655.853 170.6 651.72 170.6C646.12 170.6 642.32 169.067 640.32 166C638.32 162.8 637.32 158.733 637.32 153.8C637.32 150.2 637.986 145.867 639.32 140.8C640.653 135.6 642.253 130.267 644.12 124.8C646.12 119.333 648.053 114.267 649.92 109.6C651.786 104.8 653.253 101.133 654.32 98.6H641.52C641.52 97.5333 641.986 96.4 642.92 95.2C643.853 94 644.853 93.4 645.92 93.4H656.52C657.586 91.2667 658.786 88.6 660.12 85.4C661.586 82.2 663.52 78.6667 665.92 74.8C667.92 71.6 670.453 69.0667 673.52 67.2C676.72 65.3333 680.12 64.4 683.72 64.4ZM686.754 170.8C681.287 170.8 676.821 169.133 673.354 165.8C670.021 162.333 668.354 158.733 668.354 155C668.354 151.933 669.154 149.133 670.754 146.6C672.221 143.933 674.221 142.6 676.754 142.6L676.954 142.2C679.887 136.867 682.687 131.467 685.354 126C688.154 120.4 691.221 114.467 694.554 108.2C697.354 103 700.354 98.7333 703.554 95.4C706.887 92.0667 710.754 90.4 715.154 90.4C716.221 90.4 717.687 90.6667 719.554 91.2C721.421 91.6 722.354 92.5333 722.354 94C722.354 95.0667 721.754 95.6 720.554 95.6C719.621 95.6 718.554 95.3333 717.354 94.8C716.287 94.2667 715.421 94 714.754 94C712.221 94 710.087 95.4667 708.354 98.4C706.621 101.333 705.754 104.467 705.754 107.8C705.754 111.4 706.354 114.667 707.554 117.6C708.754 120.4 710.154 123.133 711.754 125.8C713.354 128.467 714.754 131.2 715.954 134C717.154 136.667 717.754 139.6 717.754 142.8C717.754 149.2 716.487 154.4 713.954 158.4C711.554 162.267 708.354 165.2 704.354 167.2H704.554C711.621 167.2 717.421 163.933 721.954 157.4C726.621 150.733 731.221 142.067 735.754 131.4C737.354 131.4 738.154 132 738.154 133.2C735.621 139.2 732.821 145.067 729.754 150.8C726.687 156.533 723.087 161.267 718.954 165C714.821 168.733 709.754 170.6 703.754 170.6C701.221 170.6 698.887 170.333 696.754 169.8C693.687 170.467 690.354 170.8 686.754 170.8ZM683.754 149.6C683.754 152.8 684.487 155.867 685.954 158.8C687.421 161.733 690.087 163.933 693.954 165.4C697.421 163.4 700.087 160.333 701.954 156.2C703.954 151.933 704.954 147.533 704.954 143C704.954 139.267 704.554 135.467 703.754 131.6C702.954 127.733 702.087 123.933 701.154 120.2C700.354 116.467 699.954 113.133 699.954 110.2C699.954 109.267 699.954 108.467 699.954 107.8C700.087 107 700.221 106.267 700.354 105.6C697.954 109.2 695.487 113.4 692.954 118.2C690.554 123 688.221 127.6 685.954 132C683.687 136.4 681.621 140 679.754 142.8C682.421 143.2 683.754 145.467 683.754 149.6ZM677.154 159.6C677.154 161.733 677.887 163.6 679.354 165.2C680.821 166.8 683.021 167.6 685.954 167.6C687.287 167.6 688.554 167.467 689.754 167.2C686.954 165.467 684.687 163.267 682.954 160.6C681.354 157.933 680.554 154.867 680.554 151.4C679.354 152.733 678.487 154.133 677.954 155.6C677.421 156.933 677.154 158.267 677.154 159.6Z" fill="white"/>
</svg>
