<svg width="454" height="97" viewBox="0 0 454 97" fill="none" xmlns="http://www.w3.org/2000/svg">
<path d="M50.704 6.83199L50.448 8.62399C41.616 9.26399 38.16 10.544 36.752 17.84L24.592 80.944C23.056 88.752 25.616 91.824 34.32 92.208L34.064 94H0.4L0.656 92.208C9.488 91.568 12.944 90.288 14.352 82.992L26.512 19.888C28.048 12.08 25.488 9.008 16.784 8.62399L17.04 6.83199H50.704ZM74.314 2.992L57.93 88.496C57.674 90.16 58.442 91.184 59.466 91.184C61.514 91.184 64.074 89.264 69.578 83.76L70.474 84.912C62.794 92.848 58.57 96.304 54.986 96.304C51.53 96.304 49.098 94.64 50.634 86.448L65.098 11.184C65.482 9.13599 64.586 8.112 63.562 8.112C61.898 8.112 60.362 8.49599 55.498 11.568L54.602 10.416C62.282 5.55199 65.994 3.376 72.138 1.2C73.93 0.559998 74.698 1.072 74.314 2.992ZM103.939 2.992L87.555 88.496C87.299 90.16 88.067 91.184 89.091 91.184C91.139 91.184 93.699 89.264 99.203 83.76L100.099 84.912C92.419 92.848 88.195 96.304 84.611 96.304C81.155 96.304 78.723 94.64 80.259 86.448L94.723 11.184C95.107 9.13599 94.211 8.112 93.187 8.112C91.523 8.112 89.987 8.49599 85.123 11.568L84.227 10.416C91.907 5.55199 95.619 3.376 101.763 1.2C103.555 0.559998 104.323 1.072 103.939 2.992ZM162.492 84.912C154.812 92.848 150.588 96.304 147.004 96.304C143.548 96.304 141.116 94.64 142.652 86.448L147.132 62.768C131.644 83.12 119.868 96.304 112.7 96.304C109.756 96.304 108.348 94 109.372 89.008L116.924 49.84C117.308 47.92 116.924 46.896 115.772 46.896C114.748 46.896 112.444 48.432 108.22 53.168L107.324 52.016C114.62 43.696 120.892 37.936 123.964 37.936C125.756 37.936 126.652 39.344 126.268 41.136L117.692 85.808C117.18 88.752 117.692 90.032 118.972 90.032C123.196 90.032 135.612 75.44 147.772 59.312L151.484 40.24H159.164L149.948 88.496C149.692 90.16 150.46 91.184 151.484 91.184C153.532 91.184 156.092 89.264 161.596 83.76L162.492 84.912ZM200.419 44.464C200.419 46.64 199.011 48.688 197.475 48.688C195.555 48.688 194.531 47.664 193.635 45.872C191.843 42.032 190.563 40.752 188.131 40.752C185.571 40.752 179.555 43.824 179.555 50.224C179.555 61.232 194.531 66.608 194.531 79.408C194.531 89.52 186.979 96.304 173.283 96.304C166.243 96.304 163.043 93.232 163.043 90.672C163.043 88.624 164.195 86.96 166.627 86.96C172.387 86.96 176.739 92.848 181.603 92.848C185.699 92.848 189.667 89.776 189.667 84.912C189.667 74.672 174.179 66.352 174.179 55.856C174.179 46.512 185.187 37.936 191.587 37.936C197.219 37.936 200.419 40.88 200.419 44.464ZM235.77 40.24L235.13 43.824H224.506L215.93 88.496C215.546 90.16 216.442 91.184 217.466 91.184C219.514 91.184 221.818 89.648 229.882 81.456L230.778 82.608C220.41 93.36 216.57 96.304 212.986 96.304C209.53 96.304 207.098 94.64 208.634 86.448L216.826 43.824H209.914L210.17 42.672C218.362 38.96 222.714 34.352 230.138 22.448H231.674C229.242 26.544 226.554 34.736 225.274 40.24H235.77ZM274.837 42.288C274.837 44.848 274.069 46.512 272.277 46.384C267.029 45.872 264.981 46.384 262.421 49.84C258.453 55.216 249.493 74.544 246.677 89.264L245.781 94H238.101L246.549 49.84C246.933 47.92 246.549 46.896 245.397 46.896C244.373 46.896 242.069 48.432 237.845 53.168L236.949 52.016C242.325 45.872 245.653 42.416 250.901 38.704C253.205 37.04 255.893 37.936 254.997 42.032L247.317 77.872C254.357 59.056 263.957 37.936 271.253 37.936C273.685 37.936 274.837 39.344 274.837 42.288ZM324.979 84.912C317.299 92.848 313.075 96.304 309.491 96.304C306.035 96.304 303.603 94.64 305.139 86.448L307.059 76.592C290.675 92.72 286.579 96.304 282.611 96.304C279.795 96.304 275.315 91.696 275.315 83.12C275.315 71.6 280.819 59.824 290.291 50.608C299.891 41.264 308.083 37.936 320.243 37.936C321.395 37.936 322.035 38.32 321.779 39.728L312.435 88.496C312.179 90.16 312.947 91.184 313.971 91.184C316.019 91.184 318.579 89.264 324.083 83.76L324.979 84.912ZM313.331 43.696C304.627 43.696 298.099 45.616 293.363 50.352C286.579 57.008 282.995 68.528 282.995 77.488C282.995 84.656 285.683 90.032 287.219 90.032C288.755 90.032 289.139 89.904 292.211 87.6C295.923 84.784 300.915 80.176 307.699 73.264L313.331 43.696ZM361.895 40.24L361.255 43.824H350.631L342.055 88.496C341.671 90.16 342.567 91.184 343.591 91.184C345.639 91.184 347.943 89.648 356.007 81.456L356.903 82.608C346.535 93.36 342.695 96.304 339.111 96.304C335.655 96.304 333.223 94.64 334.759 86.448L342.951 43.824H336.039L336.295 42.672C344.487 38.96 348.839 34.352 356.263 22.448H357.799C355.367 26.544 352.679 34.736 351.399 40.24H361.895ZM407.234 60.848C407.234 74.8 396.866 87.088 386.882 92.208C380.61 95.408 377.794 96.304 375.106 96.304C367.682 96.304 362.69 85.552 362.69 73.392C362.69 59.44 373.058 47.152 383.042 42.032C389.314 38.832 392.13 37.936 394.818 37.936C402.242 37.936 407.234 48.688 407.234 60.848ZM398.914 61.104C398.914 48.56 394.05 42.032 388.674 42.032C377.922 42.032 371.01 62 371.01 73.136C371.01 85.68 375.874 92.208 381.25 92.208C392.002 92.208 398.914 72.24 398.914 61.104ZM453.212 42.288C453.212 44.848 452.444 46.512 450.652 46.384C445.404 45.872 443.356 46.384 440.796 49.84C436.828 55.216 427.868 74.544 425.052 89.264L424.156 94H416.476L424.924 49.84C425.308 47.92 424.924 46.896 423.772 46.896C422.748 46.896 420.444 48.432 416.22 53.168L415.324 52.016C420.7 45.872 424.028 42.416 429.276 38.704C431.58 37.04 434.268 37.936 433.372 42.032L425.692 77.872C432.732 59.056 442.332 37.936 449.628 37.936C452.06 37.936 453.212 39.344 453.212 42.288Z" fill="white"/>
</svg>
