<svg width="771" height="127" viewBox="0 0 771 127" fill="none" xmlns="http://www.w3.org/2000/svg">
<path d="M126.096 6.83199L125.84 8.62399C117.008 9.26399 113.552 10.544 112.144 17.84L99.984 80.944C98.448 88.752 101.008 91.824 109.712 92.208L109.456 94H75.792L76.048 92.208C84.88 91.568 88.336 90.288 89.744 82.992L102.672 15.792L52.368 94H48.784L34.704 14.512L18.192 78.256C16.144 86.192 19.088 91.824 28.048 92.208L27.792 94H0.4L0.656 92.208C8.976 91.184 12.816 87.472 14.736 80.048L29.584 22.96C32.528 11.44 27.792 9.26399 18.832 8.62399L19.088 6.83199H44.048L57.104 81.2L104.848 6.83199H126.096ZM167.484 60.848C167.484 74.8 157.116 87.088 147.132 92.208C140.86 95.408 138.044 96.304 135.356 96.304C127.932 96.304 122.94 85.552 122.94 73.392C122.94 59.44 133.308 47.152 143.292 42.032C149.564 38.832 152.38 37.936 155.068 37.936C162.492 37.936 167.484 48.688 167.484 60.848ZM159.164 61.104C159.164 48.56 154.3 42.032 148.924 42.032C138.172 42.032 131.26 62 131.26 73.136C131.26 85.68 136.124 92.208 141.5 92.208C152.252 92.208 159.164 72.24 159.164 61.104ZM205.27 40.24L204.63 43.824H194.006L185.43 88.496C185.046 90.16 185.942 91.184 186.966 91.184C189.014 91.184 191.318 89.648 199.382 81.456L200.278 82.608C189.91 93.36 186.07 96.304 182.486 96.304C179.03 96.304 176.598 94.64 178.134 86.448L186.326 43.824H179.414L179.67 42.672C187.862 38.96 192.214 34.352 199.638 22.448H201.174C198.742 26.544 196.054 34.736 194.774 40.24H205.27ZM231.409 12.848C231.409 18.48 228.081 22.064 225.009 22.064C223.345 22.064 221.809 20.016 221.809 17.2C221.809 11.568 225.137 7.98399 228.209 7.98399C229.873 7.98399 231.409 10.032 231.409 12.848ZM228.849 84.912C221.169 92.848 216.945 96.304 213.361 96.304C209.905 96.304 207.473 94.64 209.009 86.448L216.049 49.84C216.433 47.92 216.049 46.896 214.897 46.896C213.873 46.896 211.569 48.432 207.345 53.168L206.449 52.016C213.745 43.696 220.017 37.936 223.089 37.936C224.881 37.936 225.649 39.472 225.393 41.136L216.305 88.496C215.921 90.16 216.817 91.184 217.841 91.184C219.889 91.184 222.449 89.264 227.953 83.76L228.849 84.912ZM280.234 60.848C280.234 74.8 269.866 87.088 259.882 92.208C253.61 95.408 250.794 96.304 248.106 96.304C240.682 96.304 235.69 85.552 235.69 73.392C235.69 59.44 246.058 47.152 256.042 42.032C262.314 38.832 265.13 37.936 267.818 37.936C275.242 37.936 280.234 48.688 280.234 60.848ZM271.914 61.104C271.914 48.56 267.05 42.032 261.674 42.032C250.922 42.032 244.01 62 244.01 73.136C244.01 85.68 248.874 92.208 254.25 92.208C265.002 92.208 271.914 72.24 271.914 61.104ZM342.084 84.912C334.404 92.848 330.18 96.304 326.596 96.304C323.14 96.304 320.196 93.36 321.86 86.064L330.052 51.504C331.588 45.232 330.564 43.056 328.004 43.056C324.548 43.056 315.716 53.04 301.508 71.216L297.156 94H289.476L297.924 49.84C298.308 47.92 297.924 46.896 296.772 46.896C295.748 46.896 293.444 48.432 289.22 53.168L288.324 52.016C295.62 43.696 301.892 37.936 304.964 37.936C306.756 37.936 307.524 39.472 307.268 41.136L302.276 67.504C316.1 49.328 325.828 37.936 333.764 37.936C338.244 37.936 340.42 42.672 338.372 51.504L329.668 88.24C329.156 90.544 330.052 91.184 331.076 91.184C333.124 91.184 335.684 89.264 341.188 83.76L342.084 84.912ZM482.062 63.408L481.806 65.2C475.534 65.456 472.462 68.656 471.31 74.672L469.774 82.608C469.006 86.704 469.774 89.136 474.254 89.776L473.998 91.568C462.478 94.512 452.11 96.304 438.798 96.304C417.934 96.304 408.206 92.208 399.374 82.736C392.59 75.568 388.622 65.584 388.622 54.32C388.622 37.04 397.582 22.576 410.766 13.616C421.134 6.576 430.606 4.52799 445.966 4.52799C461.198 4.52799 472.974 8.24 478.222 10.8L478.35 29.488H476.686C471.95 11.824 461.454 7.728 446.606 7.728C428.814 7.728 420.622 12.72 414.862 19.12C404.494 30.64 400.782 48.304 400.782 58.928C400.782 67.376 403.214 74.544 406.67 80.048C412.046 88.624 421.518 93.104 438.158 93.104C449.934 93.104 458.254 90.8 459.79 82.992L461.07 76.464C462.478 69.424 460.43 65.584 451.726 65.2L451.982 63.408H482.062ZM527.212 42.288C527.212 44.848 526.444 46.512 524.652 46.384C519.404 45.872 517.356 46.384 514.796 49.84C510.828 55.216 501.868 74.544 499.052 89.264L498.156 94H490.476L498.924 49.84C499.308 47.92 498.924 46.896 497.772 46.896C496.748 46.896 494.444 48.432 490.22 53.168L489.324 52.016C494.7 45.872 498.028 42.416 503.276 38.704C505.58 37.04 508.268 37.936 507.372 42.032L499.692 77.872C506.732 59.056 516.332 37.936 523.628 37.936C526.06 37.936 527.212 39.344 527.212 42.288ZM577.354 84.912C569.674 92.848 565.45 96.304 561.866 96.304C558.41 96.304 555.978 94.64 557.514 86.448L559.434 76.592C543.05 92.72 538.954 96.304 534.986 96.304C532.17 96.304 527.69 91.696 527.69 83.12C527.69 71.6 533.194 59.824 542.666 50.608C552.266 41.264 560.458 37.936 572.618 37.936C573.77 37.936 574.41 38.32 574.154 39.728L564.81 88.496C564.554 90.16 565.322 91.184 566.346 91.184C568.394 91.184 570.954 89.264 576.458 83.76L577.354 84.912ZM565.706 43.696C557.002 43.696 550.474 45.616 545.738 50.352C538.954 57.008 535.37 68.528 535.37 77.488C535.37 84.656 538.058 90.032 539.594 90.032C541.13 90.032 541.514 89.904 544.586 87.6C548.298 84.784 553.29 80.176 560.074 73.264L565.706 43.696ZM634.75 57.648C634.75 72.88 621.95 96.304 600.83 96.304C598.142 96.304 595.71 95.792 593.15 95.024L589.566 113.84C588.03 121.648 590.59 124.72 599.294 125.104L599.038 126.896H567.55L567.806 125.104C576.638 124.464 580.094 123.184 581.502 115.888L594.174 49.84C594.558 47.92 594.174 46.896 593.022 46.896C591.998 46.896 589.694 48.432 585.47 53.168L584.574 52.016C591.87 43.696 598.142 37.936 601.214 37.936C603.006 37.936 603.774 39.472 603.518 41.136L599.806 60.464C612.094 44.592 619.518 37.936 624.766 37.936C630.526 37.936 634.75 50.352 634.75 57.648ZM626.174 57.264C626.174 50.736 623.358 43.696 619.134 43.696C616.318 43.696 610.43 49.584 599.038 64.304L594.302 89.264C596.606 91.952 599.166 93.616 604.158 93.616C613.758 93.616 626.174 79.92 626.174 57.264ZM695.825 84.912C688.145 92.848 683.921 96.304 680.337 96.304C676.881 96.304 673.937 93.36 675.601 86.064L683.793 51.504C685.329 45.232 684.305 43.056 681.745 43.056C678.417 43.056 669.713 52.784 655.761 70.576L651.281 94H643.601L659.473 11.184C659.857 9.13599 658.961 8.112 657.937 8.112C656.273 8.112 654.737 8.49599 649.873 11.568L648.977 10.416C656.657 5.55199 660.369 3.376 666.513 1.2C668.305 0.559998 669.073 1.072 668.689 2.992L656.401 67.248C670.225 49.2 679.569 37.936 687.505 37.936C691.985 37.936 694.161 42.672 692.113 51.504L683.409 88.24C682.897 90.544 683.793 91.184 684.817 91.184C686.865 91.184 689.425 89.264 694.929 83.76L695.825 84.912ZM729.159 12.848C729.159 18.48 725.831 22.064 722.759 22.064C721.095 22.064 719.559 20.016 719.559 17.2C719.559 11.568 722.887 7.98399 725.959 7.98399C727.623 7.98399 729.159 10.032 729.159 12.848ZM726.599 84.912C718.919 92.848 714.695 96.304 711.111 96.304C707.655 96.304 705.223 94.64 706.759 86.448L713.799 49.84C714.183 47.92 713.799 46.896 712.647 46.896C711.623 46.896 709.319 48.432 705.095 53.168L704.199 52.016C711.495 43.696 717.767 37.936 720.839 37.936C722.631 37.936 723.399 39.472 723.143 41.136L714.055 88.496C713.671 90.16 714.567 91.184 715.591 91.184C717.639 91.184 720.199 89.264 725.703 83.76L726.599 84.912ZM770.048 42.544C770.048 43.696 769.28 45.744 767.232 45.744C764.8 45.744 759.936 42.416 756.608 42.416C748.16 42.416 742.144 69.68 742.144 80.176C742.144 86.96 744.064 91.952 750.592 91.952C754.048 91.952 758.272 89.264 763.776 83.76L764.672 84.912C756.992 92.848 750.336 96.304 745.088 96.304C737.664 96.304 733.44 90.8 733.44 81.712C733.44 65.712 747.264 37.936 763.264 37.936C767.232 37.936 770.048 39.6 770.048 42.544Z" fill="white"/>
</svg>
