<svg width="914" height="127" viewBox="0 0 914 127" fill="none" xmlns="http://www.w3.org/2000/svg">
<path d="M67.24 4.91199L64.168 28.72H62.248C61.864 11.312 50.856 6.96 40.232 6.96C30.76 6.96 24.488 13.744 24.488 22.832C24.488 41.648 62.248 47.408 62.248 69.808C62.248 89.776 43.944 96.304 30.888 96.304C20.136 96.304 9.256 92.08 0.552001 87.856L4.52 66.864H6.44C6.056 86.832 16.68 92.848 31.272 92.848C42.664 92.848 52.392 85.936 52.392 75.312C52.392 55.984 15.784 51.504 15.784 26.928C15.784 12.08 30.504 4.52799 40.488 4.52799C48.68 4.52799 54.824 7.34399 60.584 7.34399C62.632 7.34399 64.168 6.83199 65.32 4.91199H67.24ZM117.234 60.848C117.234 74.8 106.866 87.088 96.882 92.208C90.61 95.408 87.794 96.304 85.106 96.304C77.682 96.304 72.69 85.552 72.69 73.392C72.69 59.44 83.058 47.152 93.042 42.032C99.314 38.832 102.13 37.936 104.818 37.936C112.242 37.936 117.234 48.688 117.234 60.848ZM108.914 61.104C108.914 48.56 104.05 42.032 98.674 42.032C87.922 42.032 81.01 62 81.01 73.136C81.01 85.68 85.874 92.208 91.25 92.208C102.002 92.208 108.914 72.24 108.914 61.104ZM176.78 7.47199C176.78 9.64799 175.628 10.928 173.324 10.928C168.204 10.928 165.388 5.03999 160.268 5.03999C155.788 5.03999 150.284 10.032 147.084 26.416L144.396 40.24H155.788L155.148 43.824H143.756L134.156 94C130.572 112.688 118.412 126.512 104.204 126.512C98.956 126.512 95.372 123.184 95.372 120.24C95.372 118.064 96.524 116.784 98.828 116.784C103.948 116.784 106.764 122.672 111.884 122.672C116.364 122.672 121.868 117.68 125.068 101.296L136.076 43.824H126.86L127.116 42.032L136.844 39.6L137.996 33.712C141.708 15.024 153.74 1.2 167.948 1.2C173.196 1.2 176.78 4.52799 176.78 7.47199ZM184.27 40.24L183.63 43.824H173.006L164.43 88.496C164.046 90.16 164.942 91.184 165.966 91.184C168.014 91.184 170.318 89.648 178.382 81.456L179.278 82.608C168.91 93.36 165.07 96.304 161.486 96.304C158.03 96.304 155.598 94.64 157.134 86.448L165.326 43.824H158.414L158.67 42.672C166.862 38.96 171.214 34.352 178.638 22.448H180.174C177.742 26.544 175.054 34.736 173.774 40.24H184.27ZM264.681 45.232C264.681 62.384 232.297 96.304 220.905 96.304C217.705 96.304 216.937 92.208 217.833 87.856L221.801 67.376C207.977 85.04 197.481 96.304 190.825 96.304C187.881 96.304 186.473 94 187.497 89.008L195.049 49.84C195.433 47.92 195.049 46.896 193.897 46.896C192.873 46.896 190.569 48.432 186.345 53.168L185.449 52.016C192.745 43.696 199.017 37.936 202.089 37.936C203.881 37.936 204.777 39.344 204.393 41.136L195.817 85.808C195.305 88.752 195.817 90.032 197.097 90.032C200.937 90.032 211.433 78.128 222.441 63.92L226.921 40.24H234.601L225.641 87.216C225.257 89.52 225.769 91.184 226.921 91.184C233.705 91.184 256.489 65.2 256.489 48.048C256.489 45.744 253.289 45.616 253.289 42.928C253.289 41.136 257.257 37.936 259.177 37.936C261.993 37.936 264.681 40.112 264.681 45.232ZM318.854 84.912C311.174 92.848 306.95 96.304 303.366 96.304C299.91 96.304 297.478 94.64 299.014 86.448L300.934 76.592C284.55 92.72 280.454 96.304 276.486 96.304C273.67 96.304 269.19 91.696 269.19 83.12C269.19 71.6 274.694 59.824 284.166 50.608C293.766 41.264 301.958 37.936 314.118 37.936C315.27 37.936 315.91 38.32 315.654 39.728L306.31 88.496C306.054 90.16 306.822 91.184 307.846 91.184C309.894 91.184 312.454 89.264 317.958 83.76L318.854 84.912ZM307.206 43.696C298.502 43.696 291.974 45.616 287.238 50.352C280.454 57.008 276.87 68.528 276.87 77.488C276.87 84.656 279.558 90.032 281.094 90.032C282.63 90.032 283.014 89.904 286.086 87.6C289.798 84.784 294.79 80.176 301.574 73.264L307.206 43.696ZM363.962 42.288C363.962 44.848 363.194 46.512 361.402 46.384C356.154 45.872 354.106 46.384 351.546 49.84C347.578 55.216 338.618 74.544 335.802 89.264L334.906 94H327.226L335.674 49.84C336.058 47.92 335.674 46.896 334.522 46.896C333.498 46.896 331.194 48.432 326.97 53.168L326.074 52.016C331.45 45.872 334.778 42.416 340.026 38.704C342.33 37.04 345.018 37.936 344.122 42.032L336.442 77.872C343.482 59.056 353.082 37.936 360.378 37.936C362.81 37.936 363.962 39.344 363.962 42.288ZM405.656 46.512C405.656 56.752 393.368 63.792 374.04 68.912C373.4 72.112 373.016 75.056 373.016 77.232C373.016 87.6 377.624 91.824 384.152 91.824C387.608 91.824 393.112 89.904 399.384 84.912L400.28 86.064C393.24 91.568 384.792 96.304 378.776 96.304C371.352 96.304 364.44 90.544 364.44 77.744C364.44 57.904 379.416 37.936 394.392 37.936C398.36 37.936 405.656 39.216 405.656 46.512ZM398.232 45.36C398.232 41.392 396.44 39.6 392.6 39.6C383.896 39.6 377.24 54.96 374.424 66.992C390.296 62.768 398.232 58.16 398.232 45.36ZM539.356 45.744C539.356 69.424 522.972 94 483.932 94H439.9L440.156 92.208C448.988 91.568 452.444 90.288 453.852 82.992L466.012 19.888C467.548 12.08 464.988 9.008 456.284 8.62399L456.54 6.83199H492.38C524.764 6.83199 539.356 23.728 539.356 45.744ZM528.092 45.744C528.092 29.488 519.26 9.392 488.668 9.392H477.916L464.86 77.616C462.812 88.496 466.78 91.44 477.276 91.44H478.94C514.652 91.44 528.092 66.224 528.092 45.744ZM587.656 46.512C587.656 56.752 575.368 63.792 556.04 68.912C555.4 72.112 555.016 75.056 555.016 77.232C555.016 87.6 559.624 91.824 566.152 91.824C569.608 91.824 575.112 89.904 581.384 84.912L582.28 86.064C575.24 91.568 566.792 96.304 560.776 96.304C553.352 96.304 546.44 90.544 546.44 77.744C546.44 57.904 561.416 37.936 576.392 37.936C580.36 37.936 587.656 39.216 587.656 46.512ZM580.232 45.36C580.232 41.392 578.44 39.6 574.6 39.6C565.896 39.6 559.24 54.96 556.424 66.992C572.296 62.768 580.232 58.16 580.232 45.36ZM640.726 45.232C640.726 62.384 608.342 96.304 596.95 96.304C593.75 96.304 592.982 92.208 593.878 87.856L601.174 49.84C601.558 47.92 601.174 46.896 600.022 46.896C598.998 46.896 596.694 48.432 592.47 53.168L591.574 52.016C598.87 43.696 605.142 37.936 608.214 37.936C610.006 37.936 610.774 39.472 610.518 41.136L601.686 87.216C601.302 89.52 601.814 91.184 602.966 91.184C609.75 91.184 632.534 65.2 632.534 48.048C632.534 45.744 629.334 45.616 629.334 42.928C629.334 41.136 633.302 37.936 635.222 37.936C638.038 37.936 640.726 40.112 640.726 45.232ZM687.031 46.512C687.031 56.752 674.743 63.792 655.415 68.912C654.775 72.112 654.391 75.056 654.391 77.232C654.391 87.6 658.999 91.824 665.527 91.824C668.983 91.824 674.487 89.904 680.759 84.912L681.655 86.064C674.615 91.568 666.167 96.304 660.151 96.304C652.727 96.304 645.815 90.544 645.815 77.744C645.815 57.904 660.791 37.936 675.767 37.936C679.735 37.936 687.031 39.216 687.031 46.512ZM679.607 45.36C679.607 41.392 677.815 39.6 673.975 39.6C665.271 39.6 658.615 54.96 655.799 66.992C671.671 62.768 679.607 58.16 679.607 45.36ZM717.189 2.992L700.805 88.496C700.549 90.16 701.317 91.184 702.341 91.184C704.389 91.184 706.949 89.264 712.453 83.76L713.349 84.912C705.669 92.848 701.445 96.304 697.861 96.304C694.405 96.304 691.973 94.64 693.509 86.448L707.973 11.184C708.357 9.13599 707.461 8.112 706.437 8.112C704.773 8.112 703.237 8.49599 698.373 11.568L697.477 10.416C705.157 5.55199 708.869 3.376 715.013 1.2C716.805 0.559998 717.573 1.072 717.189 2.992ZM764.734 60.848C764.734 74.8 754.366 87.088 744.382 92.208C738.11 95.408 735.294 96.304 732.606 96.304C725.182 96.304 720.19 85.552 720.19 73.392C720.19 59.44 730.558 47.152 740.542 42.032C746.814 38.832 749.63 37.936 752.318 37.936C759.742 37.936 764.734 48.688 764.734 60.848ZM756.414 61.104C756.414 48.56 751.55 42.032 746.174 42.032C735.422 42.032 728.51 62 728.51 73.136C728.51 85.68 733.374 92.208 738.75 92.208C749.502 92.208 756.414 72.24 756.414 61.104ZM823 57.648C823 72.88 810.2 96.304 789.08 96.304C786.392 96.304 783.96 95.792 781.4 95.024L777.816 113.84C776.28 121.648 778.84 124.72 787.544 125.104L787.288 126.896H755.8L756.056 125.104C764.888 124.464 768.344 123.184 769.752 115.888L782.424 49.84C782.808 47.92 782.424 46.896 781.272 46.896C780.248 46.896 777.944 48.432 773.72 53.168L772.824 52.016C780.12 43.696 786.392 37.936 789.464 37.936C791.256 37.936 792.024 39.472 791.768 41.136L788.056 60.464C800.344 44.592 807.768 37.936 813.016 37.936C818.776 37.936 823 50.352 823 57.648ZM814.424 57.264C814.424 50.736 811.608 43.696 807.384 43.696C804.568 43.696 798.68 49.584 787.288 64.304L782.552 89.264C784.856 91.952 787.416 93.616 792.408 93.616C802.008 93.616 814.424 79.92 814.424 57.264ZM871.531 46.512C871.531 56.752 859.243 63.792 839.915 68.912C839.275 72.112 838.891 75.056 838.891 77.232C838.891 87.6 843.499 91.824 850.027 91.824C853.483 91.824 858.987 89.904 865.259 84.912L866.155 86.064C859.115 91.568 850.667 96.304 844.651 96.304C837.227 96.304 830.315 90.544 830.315 77.744C830.315 57.904 845.291 37.936 860.267 37.936C864.235 37.936 871.531 39.216 871.531 46.512ZM864.107 45.36C864.107 41.392 862.315 39.6 858.475 39.6C849.771 39.6 843.115 54.96 840.299 66.992C856.171 62.768 864.107 58.16 864.107 45.36ZM913.337 42.288C913.337 44.848 912.569 46.512 910.777 46.384C905.529 45.872 903.481 46.384 900.921 49.84C896.953 55.216 887.993 74.544 885.177 89.264L884.281 94H876.601L885.049 49.84C885.433 47.92 885.049 46.896 883.897 46.896C882.873 46.896 880.569 48.432 876.345 53.168L875.449 52.016C880.825 45.872 884.153 42.416 889.401 38.704C891.705 37.04 894.393 37.936 893.497 42.032L885.817 77.872C892.857 59.056 902.457 37.936 909.753 37.936C912.185 37.936 913.337 39.344 913.337 42.288Z" fill="white"/>
</svg>
