<svg width="66" height="67" viewBox="0 0 66 67" fill="none" xmlns="http://www.w3.org/2000/svg">
<path d="M30.7339 0.918945V21.8547L22.9969 2.51188L18.5594 4.21859L26.524 24.1303L11.5049 8.88362L8.0915 12.297L22.6555 26.7472L3.88159 18.555L1.94737 22.8787L21.859 31.526H0.126831V36.3048H21.859L1.94737 44.9522L3.88159 49.2759L22.6555 40.9699L8.0915 55.5338L11.5049 58.8335L26.524 43.7006L18.5594 63.6123L22.9969 65.319L30.7339 45.9762V66.7981H35.3989V45.9762L43.2499 65.319L47.5735 63.6123L39.6089 43.7006L54.7417 58.8335L58.0414 55.5338L43.5912 40.9699L62.3651 49.2759L64.1855 44.9522L44.3877 36.3048H66.0061V31.526H44.3877L64.1855 22.8787L62.3651 18.555L43.5912 26.7472L58.0414 12.297L54.7417 8.88362L39.6089 24.1303L47.5735 4.21859L43.2499 2.51188L35.3989 21.8547V0.918945H30.7339Z" fill="#D0F56E"/>
</svg>
