<svg width="654" height="127" viewBox="0 0 654 127" fill="none" xmlns="http://www.w3.org/2000/svg">
<path d="M117.6 6.83199L117.344 8.62399C113.12 10.8 109.536 14.128 105.952 20.4L62.176 96.304H56.16L57.056 27.184L15.072 96.304H9.568L10.592 19.888C10.72 12.464 8.16 10.032 0.864 8.62399L1.12 6.83199H32.736L32.48 8.62399C24.032 10.928 21.728 12.72 21.6 19.376L20.704 81.2L57.184 21.168V18.608C57.184 12.464 53.984 9.77599 47.456 8.62399L47.712 6.83199H79.328L79.072 8.62399C70.624 10.928 68.32 12.72 68.192 19.376L67.424 80.688L99.68 24.752C105.056 15.536 104.8 10.16 94.304 8.62399L94.56 6.83199H117.6ZM153.781 46.512C153.781 56.752 141.493 63.792 122.165 68.912C121.525 72.112 121.141 75.056 121.141 77.232C121.141 87.6 125.749 91.824 132.277 91.824C135.733 91.824 141.237 89.904 147.509 84.912L148.405 86.064C141.365 91.568 132.917 96.304 126.901 96.304C119.477 96.304 112.565 90.544 112.565 77.744C112.565 57.904 127.541 37.936 142.517 37.936C146.485 37.936 153.781 39.216 153.781 46.512ZM146.357 45.36C146.357 41.392 144.565 39.6 140.725 39.6C132.021 39.6 125.365 54.96 122.549 66.992C138.421 62.768 146.357 58.16 146.357 45.36ZM205.699 56.496C205.699 77.232 190.723 96.304 174.979 96.304C164.867 96.304 159.363 90.928 161.539 79.792L174.723 11.184C175.107 9.13599 174.211 8.112 173.187 8.112C171.523 8.112 169.987 8.49599 165.123 11.568L164.227 10.416C171.907 5.55199 175.619 3.376 181.763 1.2C183.555 0.559998 184.323 1.072 183.939 2.992L173.315 58.416C179.459 51.632 185.219 46 189.955 42.416C194.819 38.704 196.483 37.936 198.659 37.936C202.499 37.936 205.699 47.92 205.699 56.496ZM197.763 57.776C197.763 51.12 196.227 43.952 192.643 43.952C191.747 43.952 190.211 44.72 188.035 46.64C183.683 50.48 177.283 56.368 172.547 62.64L169.219 79.792C167.555 88.496 169.347 94.64 176.515 94.64C188.419 94.64 197.763 74.288 197.763 57.776ZM343.731 45.744C343.731 69.424 327.347 94 288.307 94H244.275L244.531 92.208C253.363 91.568 256.819 90.288 258.227 82.992L270.387 19.888C271.923 12.08 269.363 9.008 260.659 8.62399L260.915 6.83199H296.755C329.139 6.83199 343.731 23.728 343.731 45.744ZM332.467 45.744C332.467 29.488 323.635 9.392 293.043 9.392H282.291L269.235 77.616C267.187 88.496 271.155 91.44 281.651 91.44H283.315C319.027 91.44 332.467 66.224 332.467 45.744ZM392.031 46.512C392.031 56.752 379.743 63.792 360.415 68.912C359.775 72.112 359.391 75.056 359.391 77.232C359.391 87.6 363.999 91.824 370.527 91.824C373.983 91.824 379.487 89.904 385.759 84.912L386.655 86.064C379.615 91.568 371.167 96.304 365.151 96.304C357.727 96.304 350.815 90.544 350.815 77.744C350.815 57.904 365.791 37.936 380.767 37.936C384.735 37.936 392.031 39.216 392.031 46.512ZM384.607 45.36C384.607 41.392 382.815 39.6 378.975 39.6C370.271 39.6 363.615 54.96 360.799 66.992C376.671 62.768 384.607 58.16 384.607 45.36ZM426.669 44.464C426.669 46.64 425.261 48.688 423.725 48.688C421.805 48.688 420.781 47.664 419.885 45.872C418.093 42.032 416.813 40.752 414.381 40.752C411.821 40.752 405.805 43.824 405.805 50.224C405.805 61.232 420.781 66.608 420.781 79.408C420.781 89.52 413.229 96.304 399.533 96.304C392.493 96.304 389.293 93.232 389.293 90.672C389.293 88.624 390.445 86.96 392.877 86.96C398.637 86.96 402.989 92.848 407.853 92.848C411.949 92.848 415.917 89.776 415.917 84.912C415.917 74.672 400.429 66.352 400.429 55.856C400.429 46.512 411.437 37.936 417.837 37.936C423.469 37.936 426.669 40.88 426.669 44.464ZM457.284 12.848C457.284 18.48 453.956 22.064 450.884 22.064C449.22 22.064 447.684 20.016 447.684 17.2C447.684 11.568 451.012 7.98399 454.084 7.98399C455.748 7.98399 457.284 10.032 457.284 12.848ZM454.724 84.912C447.044 92.848 442.82 96.304 439.236 96.304C435.78 96.304 433.348 94.64 434.884 86.448L441.924 49.84C442.308 47.92 441.924 46.896 440.772 46.896C439.748 46.896 437.444 48.432 433.22 53.168L432.324 52.016C439.62 43.696 445.892 37.936 448.964 37.936C450.756 37.936 451.524 39.472 451.268 41.136L442.18 88.496C441.796 90.16 442.692 91.184 443.716 91.184C445.764 91.184 448.324 89.264 453.828 83.76L454.724 84.912ZM508.413 43.952H500.605C502.269 46.768 503.933 52.4 503.933 58.16C503.933 72.752 482.685 85.68 475.261 86.832C473.981 87.856 473.469 89.008 473.469 89.904C473.469 92.08 474.749 93.488 476.669 94.896L494.077 107.568C498.301 110.64 499.325 113.584 499.325 115.504C499.325 122.8 489.469 126.896 470.909 126.896C459.133 126.896 444.541 124.464 444.541 116.272C444.541 112.048 450.045 107.696 468.861 97.712C466.557 94.256 467.197 89.52 472.317 86.192C468.733 83.888 462.717 76.208 462.717 66.608C462.717 55.472 475.773 37.936 491.133 37.936C497.533 37.936 504.445 38.576 508.413 39.216V43.952ZM494.717 54.064C494.717 46 491.517 40.368 486.525 40.368C475.517 40.368 470.909 62.128 470.909 68.784C470.909 75.44 474.749 82.48 479.869 82.48C486.397 82.48 494.717 72.368 494.717 54.064ZM491.901 118.32C491.901 116.656 490.621 114.224 485.629 110.64L471.165 100.144C470.781 99.888 470.141 99.248 470.141 99.248C454.141 106.416 452.221 111.792 452.221 115.504C452.221 122.672 461.181 125.616 470.909 125.616C484.221 125.616 491.901 122.672 491.901 118.32ZM564.459 84.912C556.779 92.848 552.555 96.304 548.971 96.304C545.515 96.304 542.571 93.36 544.235 86.064L552.427 51.504C553.963 45.232 552.939 43.056 550.379 43.056C546.923 43.056 538.091 53.04 523.883 71.216L519.531 94H511.851L520.299 49.84C520.683 47.92 520.299 46.896 519.147 46.896C518.123 46.896 515.819 48.432 511.595 53.168L510.699 52.016C517.995 43.696 524.267 37.936 527.339 37.936C529.131 37.936 529.899 39.472 529.643 41.136L524.651 67.504C538.475 49.328 548.203 37.936 556.139 37.936C560.619 37.936 562.795 42.672 560.747 51.504L552.043 88.24C551.531 90.544 552.427 91.184 553.451 91.184C555.499 91.184 558.059 89.264 563.563 83.76L564.459 84.912ZM612.031 46.512C612.031 56.752 599.743 63.792 580.415 68.912C579.775 72.112 579.391 75.056 579.391 77.232C579.391 87.6 583.999 91.824 590.527 91.824C593.983 91.824 599.487 89.904 605.759 84.912L606.655 86.064C599.615 91.568 591.167 96.304 585.151 96.304C577.727 96.304 570.815 90.544 570.815 77.744C570.815 57.904 585.791 37.936 600.767 37.936C604.735 37.936 612.031 39.216 612.031 46.512ZM604.607 45.36C604.607 41.392 602.815 39.6 598.975 39.6C590.271 39.6 583.615 54.96 580.799 66.992C596.671 62.768 604.607 58.16 604.607 45.36ZM653.837 42.288C653.837 44.848 653.069 46.512 651.277 46.384C646.029 45.872 643.981 46.384 641.421 49.84C637.453 55.216 628.493 74.544 625.677 89.264L624.781 94H617.101L625.549 49.84C625.933 47.92 625.549 46.896 624.397 46.896C623.373 46.896 621.069 48.432 616.845 53.168L615.949 52.016C621.325 45.872 624.653 42.416 629.901 38.704C632.205 37.04 634.893 37.936 633.997 42.032L626.317 77.872C633.357 59.056 642.957 37.936 650.253 37.936C652.685 37.936 653.837 39.344 653.837 42.288Z" fill="white"/>
</svg>
